<?xml version="1.0" encoding="utf-8"?>
<!-- Generator: Adobe Illustrator 16.0.0, SVG Export Plug-In . SVG Version: 6.00 Build 0)  -->
<!DOCTYPE svg PUBLIC "-//W3C//DTD SVG 1.1//EN" "http://www.w3.org/Graphics/SVG/1.1/DTD/svg11.dtd">
<svg version="1.1" id="图层_1" xmlns="http://www.w3.org/2000/svg" xmlns:xlink="http://www.w3.org/1999/xlink" x="0px" y="0px"
	 width="21px" height="21px" viewBox="0 0 21 21" enable-background="new 0 0 21 21" xml:space="preserve">
<g>
	<polygon fill="#999999" points="18.292,19.934 3.576,19.934 3.576,2.767 6.038,2.767 6.038,3.993 4.803,3.993 4.803,18.708 
		17.066,18.708 17.066,3.993 15.794,3.993 15.794,2.767 18.292,2.767 	"/>
	<path fill="#999999" d="M14.591,5.227H7.276V1.542h1.921c0.253-0.714,0.935-1.227,1.734-1.227c0.799,0,1.481,0.513,1.734,1.227
		h1.925V5.227z M8.502,4h4.863V2.768h-1.82V2.155c0-0.338-0.275-0.613-0.613-0.613s-0.613,0.275-0.613,0.613v0.613H8.502V4z"/>
	<rect x="7.25" y="10.125" fill="#999999" width="7.358" height="1.226"/>
	<rect x="7.25" y="12.577" fill="#999999" width="7.358" height="1.226"/>
	<rect x="7.25" y="15.028" fill="#999999" width="7.358" height="1.227"/>
	<rect x="7.25" y="7.671" fill="#999999" width="3.065" height="1.226"/>
</g>
</svg>
