<?xml version="1.0" encoding="utf-8"?>
<!-- Generator: Adobe Illustrator 16.0.0, SVG Export Plug-In . SVG Version: 6.00 Build 0)  -->
<!DOCTYPE svg PUBLIC "-//W3C//DTD SVG 1.1//EN" "http://www.w3.org/Graphics/SVG/1.1/DTD/svg11.dtd">
<svg version="1.1" id="图层_1" xmlns="http://www.w3.org/2000/svg" xmlns:xlink="http://www.w3.org/1999/xlink" x="0px" y="0px"
	 width="21px" height="21px" viewBox="0 0 21 21" enable-background="new 0 0 21 21" xml:space="preserve">
<g>
	<rect x="3.307" y="6.51" fill="#fff" width="1.124" height="7.309"/>
	<rect x="16.8" y="6.51" fill="#fff" width="1.124" height="7.309"/>
	<path fill="#fff" d="M11.318,19.441H9.913l-5.267-2.814c-1.247-0.748-1.338-1.564-1.338-2.808h1.124
		c0,1.14,0.072,1.427,0.843,1.872l0.002,0.002l4.918,2.624h0.843l4.92-2.626c0.771-0.445,0.844-0.732,0.844-1.872h1.123
		c0,1.243-0.09,2.06-1.338,2.808l-0.084,0.049L11.318,19.441z"/>
	<rect x="6.68" y="10.447" fill="#fff" width="7.871" height="1.124"/>
	<rect x="6.68" y="12.695" fill="#fff" width="7.871" height="1.123"/>
	<rect x="6.681" y="8.198" fill="#fff" width="3.935" height="1.124"/>
	<path fill="#fff" d="M17.924,5.386h-3.935c-1.43,0-2.685-0.766-3.374-1.91c-0.689,1.144-1.943,1.91-3.373,1.91H3.308V4.262
		h3.935c1.55,0,2.811-1.262,2.811-2.811h1.125c0,1.549,1.262,2.811,2.812,2.811h3.935V5.386z"/>
</g>
</svg>
