<?xml version="1.0" encoding="utf-8"?>
<!-- Generator: Adobe Illustrator 16.0.0, SVG Export Plug-In . SVG Version: 6.00 Build 0)  -->
<!DOCTYPE svg PUBLIC "-//W3C//DTD SVG 1.1//EN" "http://www.w3.org/Graphics/SVG/1.1/DTD/svg11.dtd">
<svg version="1.1" id="图层_1" xmlns="http://www.w3.org/2000/svg" xmlns:xlink="http://www.w3.org/1999/xlink" x="0px" y="0px"
	 width="21px" height="21px" viewBox="0 0 21 21" enable-background="new 0 0 21 21" xml:space="preserve">
<path fill="none" stroke="#999899" stroke-miterlimit="10" d="M13.783,6.099h4.101c0.282,0,0.512-0.229,0.512-0.512
	c0-0.283-0.229-0.512-0.512-0.512h-4.101c-0.283,0-0.512,0.229-0.512,0.512C13.271,5.87,13.5,6.099,13.783,6.099 M11.196,10.378
	c0.655-0.885,1.05-2.019,1.05-3.254c0-2.829-2.064-5.123-4.61-5.123c-2.547,0-4.611,2.294-4.611,5.123
	c0,1.235,0.394,2.369,1.05,3.254c-1.204,0.416-2.074,1.547-2.074,2.894v2.05c0,1.698,1.376,3.074,3.073,3.074h5.123
	c1.697,0,3.075-1.376,3.075-3.074v-2.05C13.271,11.925,12.4,10.794,11.196,10.378 M4.05,7.124c0-2.263,1.605-4.098,3.586-4.098
	c1.98,0,3.585,1.835,3.585,4.098c0,2.263-1.605,4.098-3.585,4.098C5.655,11.222,4.05,9.387,4.05,7.124 M12.246,15.064
	c0,1.274-1.126,2.307-2.515,2.307H5.54c-1.389,0-2.515-1.032-2.515-2.307v-1.537c0-1.089,0.827-1.996,1.934-2.237
	c0.755,0.6,1.677,0.957,2.677,0.957c0.999,0,1.921-0.357,2.676-0.957c1.108,0.241,1.934,1.148,1.934,2.237V15.064z M17.884,8.147
	h-4.101c-0.283,0-0.512,0.23-0.512,0.513c0,0.283,0.229,0.512,0.512,0.512h4.101c0.282,0,0.512-0.229,0.512-0.512
	C18.396,8.378,18.166,8.147,17.884,8.147 M17.884,14.297h-3.076c-0.282,0-0.512,0.229-0.512,0.512c0,0.283,0.229,0.513,0.512,0.513
	h3.076c0.282,0,0.512-0.229,0.512-0.513C18.396,14.526,18.166,14.297,17.884,14.297 M17.884,11.222h-3.076
	c-0.282,0-0.512,0.23-0.512,0.513c0,0.283,0.229,0.513,0.512,0.513h3.076c0.282,0,0.512-0.229,0.512-0.513
	C18.396,11.452,18.166,11.222,17.884,11.222"/>
</svg>
