<?xml version="1.0" encoding="utf-8"?>
<!-- Generator: Adobe Illustrator 16.0.0, SVG Export Plug-In . SVG Version: 6.00 Build 0)  -->
<!DOCTYPE svg PUBLIC "-//W3C//DTD SVG 1.1//EN" "http://www.w3.org/Graphics/SVG/1.1/DTD/svg11.dtd">
<svg version="1.1" id="图层_1" xmlns="http://www.w3.org/2000/svg" xmlns:xlink="http://www.w3.org/1999/xlink" x="0px" y="0px"
	 width="21px" height="21px" viewBox="0 0 21 21" enable-background="new 0 0 21 21" xml:space="preserve">
<polygon fill="none" stroke="#999899" stroke-linecap="round" stroke-linejoin="round" stroke-miterlimit="10" points="
	16.897,20.364 16.897,1.009 8.78,1.009 4.41,5.379 4.41,20.364 5.659,19.74 6.907,20.364 8.156,19.74 9.405,20.364 10.652,19.74 
	11.901,20.364 13.151,19.74 14.4,20.364 15.648,19.74 "/>
<polyline fill="none" stroke="#999899" stroke-linecap="round" stroke-linejoin="round" stroke-miterlimit="10" points="
	4.409,5.379 8.78,5.379 8.78,1.009 "/>
<polyline fill="none" stroke="#999899" stroke-linecap="round" stroke-linejoin="round" stroke-miterlimit="10" points="
	7.531,7.565 10.653,11.936 10.653,15.682 "/>
<line fill="none" stroke="#999899" stroke-linecap="round" stroke-linejoin="round" stroke-miterlimit="10" x1="13.775" y1="7.565" x2="10.653" y2="11.936"/>
<line fill="none" stroke="#999899" stroke-linecap="round" stroke-linejoin="round" stroke-miterlimit="10" x1="7.843" y1="12.561" x2="13.463" y2="12.561"/>
<line fill="none" stroke="#999899" stroke-linecap="round" stroke-linejoin="round" stroke-miterlimit="10" x1="11.277" y1="10.999" x2="13.463" y2="10.999"/>
<line fill="none" stroke="#999899" stroke-linecap="round" stroke-linejoin="round" stroke-miterlimit="10" x1="7.843" y1="10.999" x2="10.028" y2="10.999"/>
</svg>
