<?xml version="1.0" encoding="utf-8"?>
<!-- Generator: Adobe Illustrator 16.0.0, SVG Export Plug-In . SVG Version: 6.00 Build 0)  -->
<!DOCTYPE svg PUBLIC "-//W3C//DTD SVG 1.1//EN" "http://www.w3.org/Graphics/SVG/1.1/DTD/svg11.dtd">
<svg version="1.1" id="图层_1" xmlns="http://www.w3.org/2000/svg" xmlns:xlink="http://www.w3.org/1999/xlink" x="0px" y="0px"
	 width="21px" height="21px" viewBox="0 0 21 21" enable-background="new 0 0 21 21" xml:space="preserve">
<line fill="none" stroke="#fff" stroke-linecap="round" stroke-linejoin="round" stroke-miterlimit="10" x1="6.924" y1="7.984" x2="12.423" y2="7.984"/>
<line fill="none" stroke="#fff" stroke-linecap="round" stroke-linejoin="round" stroke-miterlimit="10" x1="6.924" y1="10.484" x2="12.423" y2="10.484"/>
<line fill="none" stroke="#fff" stroke-linecap="round" stroke-linejoin="round" stroke-miterlimit="10" x1="6.924" y1="12.983" x2="12.423" y2="12.983"/>
<line fill="none" stroke="#fff" stroke-linecap="round" stroke-linejoin="round" stroke-miterlimit="10" x1="6.924" y1="15.481" x2="12.423" y2="15.481"/>
<line fill="none" stroke="#fff" stroke-linecap="round" stroke-linejoin="round" stroke-miterlimit="10" x1="5.924" y1="7.984" x2="4.924" y2="7.984"/>
<line fill="none" stroke="#fff" stroke-linecap="round" stroke-linejoin="round" stroke-miterlimit="10" x1="5.924" y1="10.484" x2="4.924" y2="10.484"/>
<line fill="none" stroke="#fff" stroke-linecap="round" stroke-linejoin="round" stroke-miterlimit="10" x1="5.924" y1="12.983" x2="4.924" y2="12.983"/>
<line fill="none" stroke="#fff" stroke-linecap="round" stroke-linejoin="round" stroke-miterlimit="10" x1="5.924" y1="15.481" x2="4.924" y2="15.481"/>
<polyline fill="none" stroke="#fff" stroke-linecap="round" stroke-linejoin="round" stroke-miterlimit="10" points="
	6.424,3.986 3.175,3.986 3.175,17.731 14.172,17.731 14.172,3.986 10.922,3.986 "/>
<polygon fill="none" stroke="#fff" stroke-linecap="round" stroke-linejoin="round" stroke-miterlimit="10" points="9.673,3.236
	9.673,2.236 7.674,2.236 7.674,3.236 6.674,3.236 6.174,5.235 11.172,5.235 10.673,3.236 "/>
<polygon fill="none" stroke="#fff" stroke-linecap="round" stroke-linejoin="round" stroke-miterlimit="10" points="18.67,2.736
	18.67,15.231 17.67,17.231 16.672,15.231 16.672,2.736 "/>
<polyline fill="none" stroke="#fff" stroke-linecap="round" stroke-linejoin="round" stroke-miterlimit="10" points="
	16.672,3.736 15.672,3.736 15.672,6.235 "/>
</svg>
